<svg xmlns="http://www.w3.org/2000/svg" width="128" height="128" viewBox="0 0 128 128">
  <defs>
    <linearGradient id="bg" x1="0%" y1="0%" x2="0%" y2="100%">
      <stop offset="0%" style="stop-color:#2a1a4a"/>
      <stop offset="100%" style="stop-color:#1a0a2a"/>
    </linearGradient>
  </defs>
  <rect width="128" height="128" rx="16" fill="url(#bg)"/>
  <g transform="translate(64, 64) rotate(-45)">
    <rect x="-4" y="-40" width="8" height="50" fill="#c0c0d0"/>
    <rect x="-3" y="-40" width="6" height="50" fill="#e0e0f0"/>
    <rect x="-12" y="8" width="24" height="6" rx="2" fill="#8b7355"/>
    <rect x="-3" y="14" width="6" height="16" fill="#8b7355"/>
    <polygon points="0,-50 -5,-40 5,-40" fill="#e0e0f0"/>
  </g>
  <g transform="translate(64, 80)">
    <ellipse cx="0" cy="-5" rx="16" ry="14" fill="#f0f0e8"/>
    <ellipse cx="0" cy="4" rx="10" ry="7" fill="#f0f0e8"/>
    <ellipse cx="-6" cy="-7" rx="4" ry="5" fill="#1a0a2a"/>
    <ellipse cx="6" cy="-7" rx="4" ry="5" fill="#1a0a2a"/>
    <ellipse cx="0" cy="2" rx="2" ry="3" fill="#1a0a2a"/>
  </g>
  <circle cx="25" cy="35" r="4" fill="#9060ff" opacity="0.8"/>
  <circle cx="103" cy="45" r="3" fill="#60a0ff" opacity="0.7"/>
  <circle cx="40" cy="22" r="2" fill="#ff60a0" opacity="0.6"/>
  <circle cx="88" cy="28" r="3" fill="#60ff90" opacity="0.7"/>
</svg>
