<svg xmlns="http://www.w3.org/2000/svg" width="128" height="128" viewBox="0 0 128 128">
  <defs>
    <linearGradient id="bg" x1="0%" y1="0%" x2="0%" y2="100%">
      <stop offset="0%" style="stop-color:#2a1a4a"/>
      <stop offset="100%" style="stop-color:#1a0a2a"/>
    </linearGradient>
  </defs>

  <!-- Background -->
  <rect width="128" height="128" rx="16" fill="url(#bg)"/>

  <!-- Sword -->
  <g transform="translate(64, 64) rotate(-45)">
    <rect x="-4" y="-40" width="8" height="50" fill="#c0c0d0"/>
    <rect x="-3" y="-40" width="6" height="50" fill="#e0e0f0"/>
    <rect x="-12" y="8" width="24" height="6" rx="2" fill="#8b7355"/>
    <rect x="-3" y="14" width="6" height="16" fill="#8b7355"/>
    <polygon points="0,-50 -5,-40 5,-40" fill="#e0e0f0"/>
  </g>

  <!-- Skull -->
  <g transform="translate(64, 75)">
    <ellipse cx="0" cy="-5" rx="18" ry="16" fill="#f0f0e8"/>
    <ellipse cx="0" cy="5" rx="12" ry="8" fill="#f0f0e8"/>
    <ellipse cx="-7" cy="-8" rx="5" ry="6" fill="#1a0a2a"/>
    <ellipse cx="7" cy="-8" rx="5" ry="6" fill="#1a0a2a"/>
    <ellipse cx="0" cy="2" rx="3" ry="4" fill="#1a0a2a"/>
    <rect x="-8" y="8" width="3" height="5" rx="1" fill="#1a0a2a"/>
    <rect x="-2" y="8" width="3" height="5" rx="1" fill="#1a0a2a"/>
    <rect x="5" y="8" width="3" height="5" rx="1" fill="#1a0a2a"/>
  </g>

  <!-- Magic particles -->
  <circle cx="30" cy="40" r="4" fill="#9060ff" opacity="0.8"/>
  <circle cx="98" cy="50" r="3" fill="#60a0ff" opacity="0.7"/>
  <circle cx="45" cy="25" r="2" fill="#ff60a0" opacity="0.6"/>
  <circle cx="85" cy="30" r="3" fill="#60ff90" opacity="0.7"/>
</svg>
